<?xml version="1.0" encoding="UTF-8"?>
<svg xmlns="http://www.w3.org/2000/svg" xmlns:xlink="http://www.w3.org/1999/xlink" width="248px" height="248px" viewBox="0 0 248 248" version="1.1">
<defs>
<clipPath id="clip1">
  <path d="M 196 55 L 247.878906 55 L 247.878906 98 L 196 98 Z M 196 55 "/>
</clipPath>
</defs>
<g id="surface1">
<path style=" stroke:none;fill-rule:nonzero;fill:rgb(20%,22.352941%,25.490198%);fill-opacity:1;" d="M 225.769531 95.621094 C 235.976562 95.621094 244.246094 87.351562 244.246094 77.144531 C 244.246094 66.941406 235.976562 58.667969 225.769531 58.667969 C 215.566406 58.667969 194 63.949219 194 77.144531 C 194 90.34375 215.566406 95.621094 225.769531 95.621094 "/>
<path style=" stroke:none;fill-rule:nonzero;fill:rgb(100%,94.509804%,81.176472%);fill-opacity:1;" d="M 47.199219 80.453125 C 47.199219 92.484375 37.445312 102.234375 25.414062 102.234375 C 13.382812 102.234375 3.632812 92.484375 3.632812 80.453125 C 3.632812 68.421875 13.382812 58.667969 25.414062 58.667969 C 37.445312 58.667969 47.199219 68.421875 47.199219 80.453125 "/>
<path style=" stroke:none;fill-rule:nonzero;fill:rgb(28.627452%,33.333334%,37.64706%);fill-opacity:1;" d="M 29.246094 210.988281 C 23.648438 205.394531 23.648438 196.320312 29.246094 190.722656 C 32.445312 187.527344 48.695312 164 48.695312 129.429688 C 48.695312 121.515625 55.109375 115.101562 63.023438 115.101562 C 70.9375 115.101562 77.355469 121.515625 77.355469 129.429688 C 77.355469 168.5625 60.277344 200.226562 49.507812 210.992188 C 43.914062 216.585938 34.839844 216.585938 29.246094 210.988281 "/>
<path style=" stroke:none;fill-rule:nonzero;fill:rgb(28.627452%,33.333334%,37.64706%);fill-opacity:1;" d="M 137.984375 218.820312 C 130.074219 218.820312 123.65625 212.402344 123.65625 204.488281 C 123.65625 199.964844 118.511719 171.839844 94.066406 147.394531 C 88.472656 141.796875 88.472656 132.726562 94.066406 127.128906 C 99.664062 121.535156 108.738281 121.535156 114.332031 127.128906 C 142.003906 154.800781 152.316406 189.265625 152.316406 204.488281 C 152.316406 212.402344 145.898438 218.820312 137.984375 218.820312 "/>
<path style=" stroke:none;fill-rule:nonzero;fill:rgb(28.627452%,33.333334%,37.64706%);fill-opacity:1;" d="M 196.710938 188.339844 C 193.511719 185.140625 169.988281 168.890625 135.417969 168.890625 C 127.503906 168.890625 121.085938 162.476562 121.085938 154.5625 C 121.085938 146.648438 127.503906 140.230469 135.417969 140.230469 C 174.550781 140.230469 206.214844 157.3125 216.976562 168.078125 C 222.574219 173.671875 222.574219 182.746094 216.976562 188.339844 C 211.382812 193.9375 202.308594 193.9375 196.710938 188.339844 "/>
<path style=" stroke:none;fill-rule:nonzero;fill:rgb(20%,22.352941%,25.490198%);fill-opacity:1;" d="M 135.417969 140.230469 C 127.503906 140.230469 121.085938 146.648438 121.085938 154.5625 C 121.085938 162.476562 127.503906 168.890625 135.417969 168.890625 C 161.058594 168.890625 180.613281 177.828125 190.3125 183.75 C 197.683594 177.609375 203.125 169.160156 205.464844 159.355469 C 190.214844 149.957031 164.945312 140.230469 135.417969 140.230469 "/>
<path style=" stroke:none;fill-rule:nonzero;fill:rgb(20%,22.352941%,25.490198%);fill-opacity:1;" d="M 136.253906 186.972656 C 140.800781 189.9375 145.773438 192.035156 151.007812 193.210938 C 147.472656 175.707031 136.453125 149.25 114.332031 127.128906 C 108.734375 121.535156 99.664062 121.535156 94.066406 127.128906 C 88.472656 132.726562 88.472656 141.796875 94.066406 147.394531 C 110.417969 163.746094 118.132812 181.742188 121.449219 193.222656 C 126.703125 192.046875 131.691406 189.949219 136.253906 186.972656 "/>
<path style=" stroke:none;fill-rule:nonzero;fill:rgb(20%,22.352941%,25.490198%);fill-opacity:1;" d="M 61.207031 194.3125 C 69.574219 178.835938 77.355469 155.839844 77.355469 129.429688 C 77.355469 121.515625 70.9375 115.101562 63.023438 115.101562 C 55.109375 115.101562 48.695312 121.515625 48.695312 129.429688 C 48.695312 155.359375 39.554688 175.070312 33.636719 184.660156 C 41.300781 190.644531 50.894531 194.195312 61.207031 194.3125 "/>
<path style=" stroke:none;fill-rule:nonzero;fill:rgb(100%,94.509804%,81.176472%);fill-opacity:1;" d="M 192.617188 86.300781 C 189.746094 85.277344 187.910156 82.394531 188.347656 79.378906 C 191.011719 60.914062 176.703125 43.484375 157.171875 43.484375 C 153.027344 43.484375 149.074219 44.289062 145.449219 45.746094 C 142.628906 46.882812 139.410156 45.816406 137.738281 43.273438 C 132.113281 34.710938 122.421875 29.058594 111.414062 29.058594 C 100.40625 29.058594 90.714844 34.710938 85.089844 43.273438 C 83.417969 45.816406 80.199219 46.882812 77.378906 45.746094 C 73.753906 44.289062 69.800781 43.484375 65.65625 43.484375 C 46.074219 43.484375 31.820312 60.945312 34.484375 79.386719 C 34.917969 82.398438 33.089844 85.277344 30.21875 86.296875 C 16.570312 91.15625 6.800781 104.183594 6.800781 119.5 C 6.800781 132.726562 14.085938 144.242188 24.863281 150.269531 C 26.582031 151.230469 27.765625 152.902344 28.117188 154.839844 C 31.015625 170.777344 44.957031 182.863281 61.730469 182.863281 C 69.597656 182.863281 76.835938 180.199219 82.613281 175.734375 C 84.953125 173.921875 88.195312 173.921875 90.535156 175.734375 C 96.308594 180.199219 103.546875 182.863281 111.414062 182.863281 C 119.28125 182.863281 126.519531 180.199219 132.292969 175.734375 C 134.632812 173.921875 137.878906 173.921875 140.21875 175.734375 C 145.992188 180.199219 153.230469 182.863281 161.097656 182.863281 C 177.871094 182.863281 191.8125 170.777344 194.710938 154.839844 C 195.0625 152.902344 196.246094 151.230469 197.964844 150.269531 C 208.742188 144.242188 216.027344 132.726562 216.027344 119.5 C 216.027344 104.1875 206.261719 91.164062 192.617188 86.300781 "/>
<path style=" stroke:none;fill-rule:nonzero;fill:rgb(28.627452%,33.333334%,37.64706%);fill-opacity:1;" d="M 234.761719 101.796875 C 234.761719 122.878906 210.992188 139.96875 181.667969 139.96875 C 152.347656 139.96875 128.578125 122.878906 128.578125 101.796875 C 128.578125 80.714844 152.347656 63.625 181.667969 63.625 C 210.992188 63.625 234.761719 80.714844 234.761719 101.796875 "/>
<path style=" stroke:none;fill-rule:nonzero;fill:rgb(20%,22.352941%,25.490198%);fill-opacity:1;" d="M 134.054688 114.121094 C 126.839844 121.335938 115.140625 121.335938 107.925781 114.121094 C 100.710938 106.90625 100.710938 95.207031 107.925781 87.992188 C 115.140625 80.773438 134.125 69.257812 143.457031 78.589844 C 152.789062 87.921875 141.269531 106.90625 134.054688 114.121094 "/>
<path style=" stroke:none;fill-rule:nonzero;fill:rgb(100%,63.529414%,67.843139%);fill-opacity:1;" d="M 175.960938 99.25 C 175.960938 104.339844 170.777344 108.46875 164.382812 108.46875 C 157.988281 108.46875 152.804688 104.339844 152.804688 99.25 C 152.804688 94.15625 157.988281 90.027344 164.382812 90.027344 C 170.777344 90.027344 175.960938 94.15625 175.960938 99.25 "/>
<path style=" stroke:none;fill-rule:nonzero;fill:rgb(100%,63.529414%,67.843139%);fill-opacity:1;" d="M 195.96875 99.25 C 195.96875 104.339844 201.152344 108.46875 207.546875 108.46875 C 213.941406 108.46875 219.125 104.339844 219.125 99.25 C 219.125 94.15625 213.941406 90.027344 207.546875 90.027344 C 201.152344 90.027344 195.96875 94.15625 195.96875 99.25 "/>
<path style="fill:none;stroke-width:15;stroke-linecap:round;stroke-linejoin:round;stroke:rgb(100%,100%,100%);stroke-opacity:1;stroke-miterlimit:10;" d="M -0.00369223 -0.00114609 L -0.00369223 -9.772044 " transform="matrix(0.484139,0,0,-0.484139,171.130694,85.64007)"/>
<path style="fill:none;stroke-width:15;stroke-linecap:round;stroke-linejoin:round;stroke:rgb(100%,100%,100%);stroke-opacity:1;stroke-miterlimit:10;" d="M -0.00207115 -0.00114609 L -0.00207115 -9.772044 " transform="matrix(0.484139,0,0,-0.484139,200.797878,85.64007)"/>
<path style="fill:none;stroke-width:15;stroke-linecap:round;stroke-linejoin:round;stroke:rgb(100%,100%,100%);stroke-opacity:1;stroke-miterlimit:10;" d="M -0.00318785 -0.000176528 C 3.264536 -3.743939 8.057198 -6.107996 13.414652 -6.107996 C 18.764037 -6.107996 23.564767 -3.743939 26.824423 -0.000176528 " transform="matrix(0.484139,0,0,-0.484139,181.94295,118.488196)"/>
<path style=" stroke:none;fill-rule:nonzero;fill:rgb(98.823529%,89.019608%,62.7451%);fill-opacity:1;" d="M 81.148438 176.796875 C 66.222656 172.253906 58.449219 151.625 65.273438 140.820312 C 66.308594 139.183594 65.894531 136.996094 64.246094 135.980469 C 47.550781 125.667969 52.210938 104.632812 60.039062 95.207031 C 61.300781 93.691406 61 91.453125 59.433594 90.257812 C 43.324219 78 48.035156 52.734375 63.820312 43.539062 C 45.195312 44.585938 31.902344 61.523438 34.484375 79.386719 C 34.917969 82.390625 33.117188 85.269531 30.257812 86.285156 C 16.589844 91.136719 6.800781 104.171875 6.800781 119.5 C 6.800781 132.726562 14.085938 144.242188 24.863281 150.269531 C 26.582031 151.230469 27.765625 152.902344 28.117188 154.839844 C 31.015625 170.777344 44.957031 182.863281 61.730469 182.863281 C 68.949219 182.863281 75.632812 180.617188 81.148438 176.796875 "/>
<path style="fill:none;stroke-width:15;stroke-linecap:round;stroke-linejoin:round;stroke:rgb(0%,0%,0%);stroke-opacity:1;stroke-miterlimit:10;" d="M -0.000368411 -0.00204445 C -14.902804 -14.90448 -39.067824 -14.90448 -53.97026 -0.00204445 C -68.872695 14.900391 -68.872695 39.065412 -53.97026 53.967847 C -39.067824 68.87835 0.144864 92.664154 19.420401 73.388616 C 38.695939 54.113079 14.902067 14.900391 -0.000368411 -0.00204445 Z M -0.000368411 -0.00204445 " transform="matrix(0.484139,0,0,-0.484139,134.054866,114.120104)"/>
<path style="fill:none;stroke-width:15;stroke-linecap:round;stroke-linejoin:round;stroke:rgb(0%,0%,0%);stroke-opacity:1;stroke-miterlimit:10;" d="M -0.000293819 -0.00350063 C 15.983314 -29.316195 55.688178 -50.084397 102.130201 -50.084397 C 162.700088 -50.084397 211.796633 -14.784909 211.796633 28.760539 C 211.796633 72.305987 162.700088 107.605475 102.130201 107.605475 C 68.839759 107.605475 39.018751 96.938979 18.904095 80.100114 " transform="matrix(0.484139,0,0,-0.484139,132.222798,115.720961)"/>
<g clip-path="url(#clip1)" clip-rule="nonzero">
<path style="fill:none;stroke-width:15;stroke-linecap:round;stroke-linejoin:round;stroke:rgb(0%,0%,0%);stroke-opacity:1;stroke-miterlimit:10;" d="M -0.000297088 0.00126378 C 12.973778 6.092947 21.962036 19.268733 21.962036 34.558454 C 21.962036 55.633257 4.881118 72.722243 -16.193685 72.722243 C -29.910057 72.722243 -53.550629 68.107087 -68.396585 57.376043 " transform="matrix(0.484139,0,0,-0.484139,233.613425,93.875612)"/>
</g>
<path style="fill:none;stroke-width:15;stroke-linecap:round;stroke-linejoin:round;stroke:rgb(0%,0%,0%);stroke-opacity:1;stroke-miterlimit:10;" d="M 0.00400171 -0.00150723 C -14.373984 -14.072892 -22.087426 -34.582903 -19.029482 -55.722253 C -18.133884 -61.943031 -21.90992 -67.889482 -27.840234 -69.995349 C -56.023345 -80.032506 -76.210618 -106.940801 -76.210618 -138.577211 C -76.210618 -165.896997 -61.162951 -189.682801 -38.902085 -202.132426 C -35.351965 -204.117266 -32.907224 -207.570564 -32.181063 -211.572518 C -26.19427 -244.491811 2.602044 -269.447541 37.247987 -269.447541 C 53.497854 -269.447541 68.4487 -263.952923 80.381944 -254.73068 C 85.214948 -250.986917 91.911765 -250.986917 96.74477 -254.73068 C 108.669945 -263.952923 123.628859 -269.447541 139.870658 -269.447541 C 156.120525 -269.447541 171.071371 -263.952923 182.996547 -254.73068 C 187.829551 -250.986917 194.526368 -250.986917 199.359372 -254.73068 C 211.292616 -263.952923 226.243462 -269.447541 242.493329 -269.447541 C 277.139272 -269.447541 305.935586 -244.491811 311.922379 -211.572518 C 312.64854 -207.570564 315.093281 -204.117266 318.643401 -202.132426 C 333.31992 -193.926808 344.85781 -180.783296 351.022109 -164.961057 " transform="matrix(0.484139,0,0,-0.484139,43.697281,52.409427)"/>
<path style="fill:none;stroke-width:15;stroke-linecap:round;stroke-linejoin:round;stroke:rgb(0%,0%,0%);stroke-opacity:1;stroke-miterlimit:10;" d="M -0.00360665 -0.00000145453 C -9.185508 23.979445 -32.269356 41.939824 -60.759068 41.939824 C -69.319698 41.939824 -77.484974 40.277723 -84.9725 37.268189 C -90.797924 34.920269 -97.44633 37.122957 -100.899628 42.375521 C -112.518203 60.061573 -132.536038 71.736626 -155.272942 71.736626 C -178.009847 71.736626 -198.027682 60.061573 -209.646256 42.375521 C -213.099555 37.122957 -219.747961 34.920269 -225.573385 37.268189 C -233.060911 40.277723 -241.226187 41.939824 -249.786817 41.939824 C -254.869943 41.939824 -259.783632 41.366964 -264.479472 40.29386 " transform="matrix(0.484139,0,0,-0.484139,186.587684,63.789062)"/>
<path style="fill:none;stroke-width:15;stroke-linecap:round;stroke-linejoin:round;stroke:rgb(0%,0%,0%);stroke-opacity:1;stroke-miterlimit:10;" d="M 0.001795 0.00104522 C -6.929007 4.358011 -15.118488 6.883437 -23.905035 6.883437 C -48.755875 6.883437 -68.894737 -13.263494 -68.894737 -38.114333 C -68.894737 -53.944641 -60.713324 -67.854656 -48.36052 -75.8747 " transform="matrix(0.484139,0,0,-0.484139,36.987412,62.000506)"/>
<path style="fill:none;stroke-width:15;stroke-linecap:round;stroke-linejoin:round;stroke:rgb(0%,0%,0%);stroke-opacity:1;stroke-miterlimit:10;" d="M 0.00279643 -0.00388488 C -8.565902 -18.972821 -17.320175 -30.914134 -20.361982 -33.955941 C -31.924077 -45.518036 -31.924077 -64.261055 -20.361982 -75.815082 C -8.807956 -87.377177 9.935064 -87.377177 21.48909 -75.815082 C 32.179792 -65.132448 45.880028 -44.477205 57.224275 -16.931502 " transform="matrix(0.484139,0,0,-0.484139,39.104115,174.283275)"/>
<path style="fill:none;stroke-width:15;stroke-linecap:round;stroke-linejoin:round;stroke:rgb(0%,0%,0%);stroke-opacity:1;stroke-miterlimit:10;" d="M 0.00353433 0.00214677 C 9.73409 -23.122043 12.574186 -40.99367 12.574186 -45.834742 C 12.574186 -62.173363 25.830657 -75.429833 42.169277 -75.429833 C 58.524034 -75.429833 71.772436 -62.173363 71.772436 -45.834742 C 71.772436 -33.78854 68.641876 -15.908845 61.57391 4.770603 " transform="matrix(0.484139,0,0,-0.484139,117.568601,182.301821)"/>
<path style="fill:none;stroke-width:15;stroke-linecap:round;stroke-linejoin:round;stroke:rgb(0%,0%,0%);stroke-opacity:1;stroke-miterlimit:10;" d="M -0.00151845 0.00298438 C 3.524396 1.447238 6.832462 3.601515 9.696764 6.465816 C 21.258859 18.019843 21.258859 36.762862 9.696764 48.316889 C 0.845669 57.167984 -14.847474 68.084602 -35.623744 78.024938 " transform="matrix(0.484139,0,0,-0.484139,212.281985,191.470195)"/>
<path style="fill:none;stroke-width:15;stroke-linecap:round;stroke-linejoin:round;stroke:rgb(0%,0%,0%);stroke-opacity:1;stroke-miterlimit:10;" d="M -0.00076159 0.00390946 C 18.693847 -8.112956 31.119267 -16.657449 35.669875 -20.570649 " transform="matrix(0.484139,0,0,-0.484139,178.879275,177.865174)"/>
</g>
</svg>
