<?xml version="1.0" encoding="UTF-8"?>
<svg xmlns="http://www.w3.org/2000/svg" xmlns:xlink="http://www.w3.org/1999/xlink" width="248px" height="248px" viewBox="0 0 248 248" version="1.1">
<g id="surface1">
<path style=" stroke:none;fill-rule:nonzero;fill:rgb(100%,100%,100%);fill-opacity:1;" d="M 179.195312 243.105469 L 179.195312 228.078125 C 179.195312 197.382812 154.3125 172.5 123.613281 172.5 C 92.917969 172.5 68.035156 197.382812 68.035156 228.078125 L 68.035156 243.105469 Z M 179.195312 243.105469 "/>
<path style=" stroke:none;fill-rule:nonzero;fill:rgb(93.333334%,74.117649%,98.039216%);fill-opacity:1;" d="M 127.507812 192.011719 C 138.238281 196.835938 145.789062 208.292969 145.789062 221.660156 L 145.789062 224.875 C 145.789062 229.882812 141.730469 233.941406 136.722656 233.941406 L 86.515625 233.941406 L 86.515625 243.105469 L 160.714844 243.105469 L 160.714844 228.90625 C 160.714844 209.730469 146.167969 193.957031 127.507812 192.011719 Z M 127.507812 192.011719 "/>
<path style=" stroke:none;fill-rule:nonzero;fill:rgb(83.137256%,61.176473%,55.29412%);fill-opacity:1;" d="M 139.300781 195.867188 L 107.929688 195.867188 C 68.949219 195.867188 37.351562 164.269531 37.351562 125.289062 C 37.351562 86.308594 68.949219 54.707031 107.929688 54.707031 L 139.300781 54.707031 C 178.28125 54.707031 209.878906 86.308594 209.878906 125.289062 C 209.878906 164.269531 178.28125 195.867188 139.300781 195.867188 Z M 139.300781 195.867188 "/>
<path style=" stroke:none;fill-rule:nonzero;fill:rgb(100%,100%,100%);fill-opacity:1;" d="M 205.476562 132.234375 C 210.234375 128.953125 213.417969 122.972656 213.417969 116.136719 C 213.417969 108.25 209.179688 101.503906 203.171875 98.730469 C 203.421875 97.273438 203.554688 95.765625 203.554688 94.222656 C 203.554688 81.308594 194.433594 70.839844 183.1875 70.839844 C 182.785156 70.839844 182.386719 70.855469 181.988281 70.882812 C 178.363281 56.589844 166.878906 46.144531 153.257812 46.144531 C 146.582031 46.144531 140.417969 48.65625 135.4375 52.898438 C 130.578125 48.886719 124.621094 46.515625 118.179688 46.515625 C 109.835938 46.515625 102.304688 50.484375 96.921875 56.855469 C 94.074219 55.371094 90.914062 54.539062 87.582031 54.539062 C 78.007812 54.539062 69.832031 61.371094 66.53125 71.019531 C 65.714844 70.90625 64.886719 70.839844 64.042969 70.839844 C 52.796875 70.839844 43.675781 81.308594 43.675781 94.222656 C 43.675781 95.765625 43.808594 97.273438 44.058594 98.730469 C 38.050781 101.503906 33.8125 108.25 33.8125 116.136719 C 33.8125 122.972656 36.996094 128.953125 41.753906 132.234375 C 36.996094 135.511719 33.8125 141.492188 33.8125 148.328125 C 33.8125 156.214844 38.050781 162.960938 44.058594 165.734375 C 43.808594 167.195312 43.675781 168.699219 43.675781 170.242188 C 43.675781 183.15625 52.796875 193.625 64.042969 193.625 C 64.445312 193.625 64.84375 193.609375 65.242188 193.582031 C 68.867188 207.875 80.351562 218.324219 93.972656 218.324219 C 100.648438 218.324219 106.8125 215.808594 111.792969 211.566406 C 116.652344 215.578125 122.609375 217.949219 129.050781 217.949219 C 137.394531 217.949219 144.925781 213.980469 150.308594 207.609375 C 153.15625 209.09375 156.316406 209.925781 159.648438 209.925781 C 169.222656 209.925781 177.398438 203.09375 180.699219 193.445312 C 181.515625 193.5625 182.34375 193.628906 183.1875 193.628906 C 194.433594 193.628906 203.554688 183.15625 203.554688 170.246094 C 203.554688 168.703125 203.421875 167.195312 203.171875 165.734375 C 209.179688 162.960938 213.417969 156.214844 213.417969 148.328125 C 213.417969 141.492188 210.234375 135.511719 205.476562 132.234375 Z M 205.476562 132.234375 "/>
<path style=" stroke:none;fill-rule:nonzero;fill:rgb(93.333334%,74.117649%,98.039216%);fill-opacity:1;" d="M 205.476562 132.234375 C 210.234375 128.953125 213.417969 122.972656 213.417969 116.136719 C 213.417969 108.25 209.179688 101.503906 203.171875 98.730469 C 203.421875 97.269531 203.554688 95.765625 203.554688 94.222656 C 203.554688 81.308594 194.433594 70.839844 183.1875 70.839844 C 182.785156 70.839844 182.386719 70.855469 181.988281 70.882812 C 178.363281 56.589844 166.878906 46.144531 153.257812 46.144531 C 148.894531 46.144531 144.75 47.222656 141.011719 49.152344 C 146.625 52.441406 150.972656 58.179688 152.976562 65.144531 C 153.128906 65.675781 153.605469 66.046875 154.160156 66.046875 L 154.195312 66.046875 C 163.261719 66.046875 170.613281 74.484375 170.613281 84.890625 C 170.613281 85.75 170.558594 86.59375 170.460938 87.421875 C 170.386719 88.082031 170.714844 88.707031 171.289062 89.035156 C 175.601562 91.519531 178.5625 96.636719 178.5625 102.554688 C 178.5625 108.0625 175.996094 112.882812 172.160156 115.523438 C 175.996094 118.167969 178.5625 122.988281 178.5625 128.496094 C 178.5625 134.851562 175.144531 140.289062 170.304688 142.523438 C 170.503906 143.699219 170.613281 144.914062 170.613281 146.15625 C 170.613281 156.566406 163.261719 165 154.195312 165 C 153.515625 165 152.847656 164.949219 152.191406 164.855469 C 149.53125 172.632812 142.941406 178.140625 135.226562 178.140625 C 132.539062 178.140625 129.992188 177.464844 127.699219 176.269531 C 123.363281 181.40625 117.292969 184.605469 110.570312 184.605469 C 105.375 184.605469 100.574219 182.695312 96.660156 179.460938 C 92.644531 182.878906 87.675781 184.90625 82.296875 184.90625 C 71.621094 184.90625 62.574219 176.941406 59.398438 165.910156 C 59.242188 165.367188 58.75 165 58.1875 165 C 58.183594 165 58.179688 165 58.175781 165 C 49.109375 165 39.523438 152.476562 39.523438 142.070312 C 39.523438 140.828125 39.632812 139.613281 39.832031 138.4375 C 37.671875 137.4375 38.035156 139.886719 36.621094 137.816406 C 34.847656 140.816406 33.8125 144.429688 33.8125 148.328125 C 33.8125 156.214844 38.050781 162.957031 44.058594 165.734375 C 43.808594 167.191406 43.675781 168.699219 43.675781 170.242188 C 43.675781 183.15625 52.796875 193.625 64.046875 193.625 C 64.445312 193.625 64.84375 193.609375 65.242188 193.582031 C 68.867188 207.871094 80.351562 218.320312 93.972656 218.320312 C 100.648438 218.320312 106.8125 215.808594 111.792969 211.566406 C 116.652344 215.578125 122.609375 217.945312 129.054688 217.945312 C 137.394531 217.945312 144.925781 213.980469 150.308594 207.605469 C 153.15625 209.089844 156.316406 209.925781 159.648438 209.925781 C 169.222656 209.925781 177.398438 203.089844 180.699219 193.445312 C 181.515625 193.558594 182.34375 193.625 183.1875 193.625 C 194.4375 193.625 203.554688 183.15625 203.554688 170.242188 C 203.554688 168.699219 203.421875 167.191406 203.171875 165.734375 C 209.179688 162.957031 213.421875 156.214844 213.421875 148.328125 C 213.417969 141.492188 210.234375 135.511719 205.476562 132.234375 Z M 205.476562 132.234375 "/>
<path style=" stroke:none;fill-rule:nonzero;fill:rgb(96.862745%,88.627452%,40.000001%);fill-opacity:1;" d="M 186.996094 89.25 C 183.816406 94.457031 183.289062 101.125 186.179688 107.003906 C 191.792969 118.425781 205.605469 123.132812 217.023438 117.519531 C 231.300781 110.5 237.1875 93.238281 230.167969 78.960938 C 221.398438 61.113281 199.816406 53.757812 181.96875 62.53125 C 181.96875 62.53125 160.304688 73.207031 185.515625 88.59375 Z M 186.996094 89.25 "/>
<path style=" stroke:none;fill-rule:nonzero;fill:rgb(96.862745%,88.627452%,40.000001%);fill-opacity:1;" d="M 60.234375 89.25 C 63.414062 94.457031 63.941406 101.125 61.050781 107.003906 C 55.4375 118.425781 41.625 123.132812 30.203125 117.519531 C 15.925781 110.5 10.042969 93.238281 17.0625 78.960938 C 25.832031 61.113281 47.414062 53.757812 65.257812 62.53125 C 65.257812 62.53125 86.921875 73.207031 61.714844 88.59375 Z M 60.234375 89.25 "/>
<path style=" stroke:none;fill-rule:nonzero;fill:rgb(83.137256%,61.176473%,55.29412%);fill-opacity:1;" d="M 152.109375 180.980469 L 95.121094 180.980469 C 75.972656 180.980469 60.449219 165.457031 60.449219 146.308594 C 60.449219 127.160156 75.972656 111.640625 95.121094 111.640625 L 152.109375 111.640625 C 171.257812 111.640625 186.78125 127.160156 186.78125 146.308594 C 186.78125 165.457031 171.257812 180.980469 152.109375 180.980469 Z M 152.109375 180.980469 "/>
<path style=" stroke:none;fill-rule:nonzero;fill:rgb(26.666668%,4.313726%,16.078432%);fill-opacity:1;" d="M 234.5625 76.800781 C 224.871094 57.085938 201.320312 48.636719 181.394531 57.410156 C 174.960938 47.503906 164.566406 41.25 153.257812 41.25 C 146.875 41.25 140.765625 43.15625 135.386719 46.792969 C 130.171875 43.398438 124.289062 41.621094 118.175781 41.621094 C 109.800781 41.621094 101.933594 44.925781 95.6875 51.007812 C 93.074219 50.101562 90.363281 49.644531 87.582031 49.644531 C 80.105469 49.644531 73.226562 52.9375 68.199219 58.550781 C 67.828125 58.34375 67.558594 58.207031 67.417969 58.136719 C 47.179688 48.191406 22.617188 56.5625 12.667969 76.800781 C 8.695312 84.882812 8.109375 94.023438 11.011719 102.542969 C 13.917969 111.0625 19.964844 117.945312 28.046875 121.914062 C 28.601562 122.1875 29.164062 122.433594 29.726562 122.667969 C 30.636719 126.242188 32.289062 129.515625 34.5625 132.234375 C 30.960938 136.542969 28.914062 142.234375 28.914062 148.328125 C 28.914062 156.585938 32.714844 164.085938 38.835938 168.359375 C 38.800781 168.988281 38.78125 169.617188 38.78125 170.246094 C 38.78125 184.90625 48.800781 197 61.582031 198.390625 C 62.820312 201.921875 64.503906 205.183594 66.535156 208.101562 C 64.339844 214.359375 63.140625 221.082031 63.140625 228.078125 L 63.140625 243.105469 C 63.140625 245.808594 65.332031 248 68.035156 248 C 70.738281 248 72.929688 245.808594 72.929688 243.105469 L 72.929688 228.078125 C 72.929688 224.035156 73.417969 220.101562 74.320312 216.328125 C 77.339844 218.660156 80.691406 220.457031 84.246094 221.632812 C 83.808594 223.992188 83.578125 226.421875 83.578125 228.90625 L 83.578125 244.839844 C 83.578125 246.460938 84.890625 247.777344 86.515625 247.777344 C 88.136719 247.777344 89.453125 246.460938 89.453125 244.839844 L 89.453125 228.90625 C 89.453125 226.878906 89.636719 224.890625 89.976562 222.957031 C 91.292969 223.128906 92.625 223.21875 93.972656 223.21875 C 100.351562 223.21875 106.460938 221.3125 111.84375 217.671875 C 117.058594 221.066406 122.941406 222.84375 129.050781 222.84375 C 137.429688 222.84375 145.296875 219.539062 151.539062 213.460938 C 152.507812 213.796875 153.484375 214.066406 154.476562 214.277344 C 156.589844 218.714844 157.777344 223.675781 157.777344 228.90625 L 157.777344 244.839844 C 157.777344 246.460938 159.09375 247.777344 160.714844 247.777344 C 162.335938 247.777344 163.652344 246.460938 163.652344 244.839844 L 163.652344 228.90625 C 163.652344 223.933594 162.734375 219.175781 161.066406 214.777344 C 164.808594 214.570312 168.378906 213.535156 171.609375 211.796875 C 173.347656 216.910156 174.300781 222.386719 174.300781 228.078125 L 174.300781 243.105469 C 174.300781 245.808594 176.492188 248 179.195312 248 C 181.898438 248 184.089844 245.808594 184.089844 243.105469 L 184.089844 228.078125 C 184.089844 220.007812 182.492188 212.304688 179.609375 205.257812 C 181.289062 203.265625 182.742188 201.003906 183.917969 198.511719 C 197.511719 198.074219 208.449219 185.5625 208.449219 170.246094 C 208.449219 169.617188 208.429688 168.988281 208.394531 168.359375 C 214.515625 164.085938 218.3125 156.585938 218.3125 148.328125 C 218.3125 142.234375 216.269531 136.542969 212.664062 132.234375 C 214.9375 129.515625 216.585938 126.242188 217.496094 122.671875 C 218.0625 122.4375 218.625 122.1875 219.183594 121.914062 C 235.863281 113.714844 242.761719 93.480469 234.5625 76.800781 Z M 20.28125 99.382812 C 18.21875 93.339844 18.636719 86.851562 21.453125 81.121094 C 26.859375 70.121094 37.9375 63.730469 49.425781 63.730469 C 54.023438 63.730469 58.683594 64.753906 63.074219 66.910156 C 64.574219 67.671875 68.894531 70.542969 69.019531 73.679688 C 69.121094 76.226562 66.417969 79.519531 61.511719 82.894531 C 59.644531 80.902344 57.390625 79.207031 54.800781 77.933594 C 44.6875 72.964844 32.671875 76.636719 28.007812 86.117188 C 24.746094 92.753906 25.761719 100.449219 30.417969 104.417969 C 33.289062 106.863281 37.347656 108.097656 41.007812 107.632812 C 44.410156 107.203125 47.292969 105.441406 49.339844 102.535156 C 50.898438 100.324219 50.371094 97.269531 48.160156 95.710938 C 45.949219 94.152344 42.894531 94.683594 41.339844 96.894531 C 40.773438 97.695312 40.234375 97.863281 39.78125 97.917969 C 38.710938 98.050781 37.429688 97.527344 36.765625 96.960938 C 35.707031 96.058594 35.457031 93.15625 36.796875 90.4375 C 39.269531 85.40625 45.867188 84.453125 50.480469 86.71875 C 53.726562 88.316406 56.15625 91.078125 57.324219 94.503906 C 58.488281 97.925781 58.253906 101.597656 56.660156 104.84375 C 54.519531 109.195312 50.816406 112.453125 46.226562 114.015625 C 41.636719 115.582031 36.714844 115.265625 32.363281 113.125 C 26.632812 110.308594 22.339844 105.429688 20.28125 99.382812 Z M 201.121094 161.289062 C 199.113281 162.214844 197.976562 164.375 198.347656 166.554688 C 198.554688 167.777344 198.660156 169.015625 198.660156 170.242188 C 198.660156 180.4375 191.71875 188.730469 183.183594 188.730469 C 182.605469 188.730469 182.011719 188.6875 181.378906 188.597656 C 179.058594 188.269531 176.824219 189.640625 176.066406 191.863281 C 173.328125 199.859375 166.886719 205.03125 159.648438 205.03125 C 157.195312 205.03125 154.816406 204.4375 152.570312 203.265625 C 150.539062 202.207031 148.042969 202.699219 146.566406 204.449219 C 141.882812 209.996094 135.664062 213.054688 129.054688 213.054688 C 123.96875 213.054688 119.078125 211.234375 114.910156 207.789062 C 113.078125 206.28125 110.425781 206.300781 108.617188 207.839844 C 104.328125 211.496094 99.265625 213.425781 93.972656 213.425781 C 82.992188 213.425781 73.128906 204.769531 69.988281 192.378906 C 69.433594 190.195312 67.46875 188.6875 65.242188 188.6875 C 65.136719 188.6875 65.027344 188.691406 64.917969 188.699219 C 64.585938 188.71875 64.300781 188.730469 64.042969 188.730469 C 55.511719 188.730469 48.570312 180.4375 48.570312 170.242188 C 48.570312 169.015625 48.675781 167.777344 48.882812 166.554688 C 49.253906 164.375 48.117188 162.21875 46.109375 161.289062 C 41.679688 159.242188 38.707031 154.035156 38.707031 148.328125 C 38.707031 143.363281 40.9375 138.742188 44.53125 136.265625 C 45.859375 135.351562 46.648438 133.84375 46.648438 132.234375 C 46.648438 130.621094 45.859375 129.117188 44.53125 128.203125 C 43.234375 127.304688 42.113281 126.132812 41.210938 124.761719 C 51.214844 124.441406 60.730469 118.753906 65.445312 109.164062 C 68.292969 103.375 68.507812 96.964844 66.5625 91.300781 C 74.972656 85.636719 79.085938 79.5625 78.800781 73.21875 C 78.652344 69.921875 77.34375 67.152344 75.667969 64.921875 C 78.859375 61.457031 83.0625 59.433594 87.582031 59.433594 C 90.035156 59.433594 92.414062 60.027344 94.660156 61.199219 C 96.691406 62.257812 99.183594 61.765625 100.664062 60.015625 C 105.347656 54.46875 111.566406 51.414062 118.175781 51.414062 C 123.257812 51.414062 128.152344 53.230469 132.320312 56.675781 C 134.152344 58.1875 136.804688 58.167969 138.613281 56.625 C 142.902344 52.972656 147.964844 51.039062 153.257812 51.039062 C 161.253906 51.039062 168.648438 55.632812 173.296875 62.910156 C 170.855469 65.402344 168.628906 68.84375 168.429688 73.21875 C 168.144531 79.5625 172.257812 85.636719 180.664062 91.300781 C 178.722656 96.964844 178.9375 103.375 181.785156 109.164062 C 186.496094 118.753906 196.011719 124.441406 206.011719 124.761719 C 205.113281 126.128906 203.996094 127.304688 202.699219 128.199219 C 201.371094 129.113281 200.578125 130.621094 200.578125 132.234375 C 200.578125 133.84375 201.371094 135.351562 202.699219 136.265625 C 206.292969 138.738281 208.523438 143.363281 208.523438 148.328125 C 208.523438 154.035156 205.546875 159.242188 201.121094 161.289062 Z M 214.867188 113.125 C 210.515625 115.265625 205.59375 115.582031 201.003906 114.015625 C 196.414062 112.453125 192.710938 109.195312 190.574219 104.84375 C 188.976562 101.597656 188.742188 97.925781 189.90625 94.503906 C 191.074219 91.078125 193.503906 88.316406 196.75 86.71875 C 198.304688 85.957031 200.085938 85.558594 201.855469 85.558594 C 205.339844 85.558594 208.796875 87.101562 210.433594 90.4375 C 211.773438 93.15625 211.523438 96.058594 210.464844 96.960938 C 209.800781 97.527344 208.519531 98.050781 207.449219 97.917969 C 206.996094 97.859375 206.460938 97.695312 205.894531 96.890625 C 204.335938 94.683594 201.28125 94.152344 199.070312 95.710938 C 196.863281 97.269531 196.332031 100.324219 197.890625 102.535156 C 199.9375 105.441406 202.820312 107.203125 206.222656 107.632812 C 209.882812 108.09375 213.941406 106.863281 216.816406 104.414062 C 221.472656 100.449219 222.484375 92.753906 219.222656 86.117188 C 214.5625 76.632812 202.542969 72.960938 192.433594 77.933594 C 189.839844 79.207031 187.585938 80.902344 185.71875 82.894531 C 180.8125 79.519531 178.109375 76.226562 178.210938 73.679688 C 178.335938 70.542969 182.65625 67.671875 184.132812 66.925781 C 199.527344 59.359375 218.210938 65.726562 225.777344 81.121094 C 231.59375 92.953125 226.695312 107.308594 214.867188 113.125 Z M 214.867188 113.125 "/>
<path style=" stroke:none;fill-rule:nonzero;fill:rgb(26.666668%,4.313726%,16.078432%);fill-opacity:1;" d="M 152.109375 108.703125 L 95.121094 108.703125 C 74.382812 108.703125 57.511719 125.574219 57.511719 146.308594 C 57.511719 167.046875 74.382812 183.917969 95.121094 183.917969 L 152.109375 183.917969 C 172.847656 183.917969 189.71875 167.046875 189.71875 146.308594 C 189.71875 125.574219 172.847656 108.703125 152.109375 108.703125 Z M 152.109375 178.042969 L 95.121094 178.042969 C 77.621094 178.042969 63.386719 163.808594 63.386719 146.308594 C 63.386719 128.8125 77.621094 114.578125 95.121094 114.578125 L 152.109375 114.578125 C 169.609375 114.578125 183.84375 128.8125 183.84375 146.308594 C 183.84375 163.808594 169.609375 178.042969 152.109375 178.042969 Z M 152.109375 178.042969 "/>
<path style=" stroke:none;fill-rule:nonzero;fill:rgb(26.666668%,4.313726%,16.078432%);fill-opacity:1;" d="M 81.507812 146.550781 C 77.15625 146.550781 73.625 150.078125 73.625 154.429688 C 73.625 158.78125 77.15625 162.3125 81.507812 162.3125 C 85.859375 162.3125 89.386719 158.785156 89.386719 154.429688 C 89.386719 150.078125 85.859375 146.550781 81.507812 146.550781 Z M 81.507812 146.550781 "/>
<path style=" stroke:none;fill-rule:nonzero;fill:rgb(26.666668%,4.313726%,16.078432%);fill-opacity:1;" d="M 165.722656 146.550781 C 161.371094 146.550781 157.84375 150.078125 157.84375 154.429688 C 157.84375 158.78125 161.371094 162.3125 165.722656 162.3125 C 170.074219 162.3125 173.601562 158.785156 173.601562 154.429688 C 173.601562 150.078125 170.074219 146.550781 165.722656 146.550781 Z M 165.722656 146.550781 "/>
<path style=" stroke:none;fill-rule:nonzero;fill:rgb(26.666668%,4.313726%,16.078432%);fill-opacity:1;" d="M 89.226562 128.496094 C 88.867188 128.3125 85.617188 126.714844 81.503906 126.714844 C 77.394531 126.714844 74.144531 128.3125 73.785156 128.496094 C 72.34375 129.230469 71.769531 131 72.507812 132.445312 C 73.246094 133.890625 75.015625 134.464844 76.457031 133.726562 C 76.480469 133.714844 78.765625 132.589844 81.503906 132.589844 C 84.234375 132.589844 86.542969 133.722656 86.554688 133.726562 C 86.980469 133.945312 87.4375 134.046875 87.886719 134.046875 C 88.957031 134.046875 89.984375 133.464844 90.503906 132.445312 C 91.242188 131 90.671875 129.230469 89.226562 128.496094 Z M 89.226562 128.496094 "/>
<path style=" stroke:none;fill-rule:nonzero;fill:rgb(26.666668%,4.313726%,16.078432%);fill-opacity:1;" d="M 173.441406 128.496094 C 173.085938 128.3125 169.835938 126.714844 165.722656 126.714844 C 161.609375 126.714844 158.359375 128.3125 158.003906 128.496094 C 156.566406 129.230469 155.996094 130.984375 156.722656 132.429688 C 157.453125 133.871094 159.214844 134.453125 160.664062 133.734375 C 160.6875 133.722656 162.992188 132.589844 165.722656 132.589844 C 168.453125 132.589844 170.761719 133.722656 170.769531 133.726562 C 171.199219 133.945312 171.652344 134.046875 172.105469 134.046875 C 173.171875 134.046875 174.203125 133.464844 174.722656 132.445312 C 175.460938 131 174.886719 129.230469 173.441406 128.496094 Z M 173.441406 128.496094 "/>
<path style=" stroke:none;fill-rule:nonzero;fill:rgb(26.666668%,4.313726%,16.078432%);fill-opacity:1;" d="M 131.496094 151.492188 C 129.871094 151.492188 128.558594 152.808594 128.558594 154.429688 C 128.558594 157.15625 126.339844 159.375 123.613281 159.375 C 120.890625 159.375 118.671875 157.15625 118.671875 154.429688 C 118.671875 152.808594 117.359375 151.492188 115.734375 151.492188 C 114.113281 151.492188 112.796875 152.808594 112.796875 154.429688 C 112.796875 160.394531 117.652344 165.25 123.617188 165.25 C 129.578125 165.25 134.433594 160.394531 134.433594 154.429688 C 134.429688 152.808594 133.117188 151.492188 131.496094 151.492188 Z M 131.496094 151.492188 "/>
<path style=" stroke:none;fill-rule:nonzero;fill:rgb(26.666668%,4.313726%,16.078432%);fill-opacity:1;" d="M 158.355469 98.699219 C 159.976562 98.699219 161.292969 97.386719 161.292969 95.765625 L 161.292969 90.539062 C 161.292969 88.917969 159.976562 87.601562 158.355469 87.601562 C 156.730469 87.601562 155.417969 88.917969 155.417969 90.539062 L 155.417969 95.765625 C 155.417969 97.386719 156.730469 98.699219 158.355469 98.699219 Z M 158.355469 98.699219 "/>
<path style=" stroke:none;fill-rule:nonzero;fill:rgb(26.666668%,4.313726%,16.078432%);fill-opacity:1;" d="M 144.957031 81.464844 C 146.582031 81.464844 147.894531 80.148438 147.894531 78.527344 L 147.894531 73.300781 C 147.894531 71.679688 146.582031 70.363281 144.957031 70.363281 C 143.335938 70.363281 142.023438 71.679688 142.023438 73.300781 L 142.023438 78.527344 C 142.023438 80.148438 143.335938 81.464844 144.957031 81.464844 Z M 144.957031 81.464844 "/>
<path style=" stroke:none;fill-rule:nonzero;fill:rgb(26.666668%,4.313726%,16.078432%);fill-opacity:1;" d="M 125.183594 98.699219 C 126.804688 98.699219 128.121094 97.386719 128.121094 95.765625 L 128.121094 90.539062 C 128.121094 88.917969 126.804688 87.601562 125.183594 87.601562 C 123.558594 87.601562 122.246094 88.917969 122.246094 90.539062 L 122.246094 95.765625 C 122.246094 97.386719 123.558594 98.699219 125.183594 98.699219 Z M 125.183594 98.699219 "/>
<path style=" stroke:none;fill-rule:nonzero;fill:rgb(98.431373%,94.901961%,65.882355%);fill-opacity:1;" d="M 225.308594 4.722656 L 229.46875 16.417969 C 229.644531 16.917969 229.996094 17.316406 230.441406 17.515625 L 240.832031 22.195312 C 242.300781 22.855469 242.300781 25.195312 240.832031 25.855469 L 230.441406 30.535156 C 230 30.738281 229.644531 31.132812 229.46875 31.632812 L 225.308594 43.328125 C 224.722656 44.980469 222.644531 44.980469 222.054688 43.328125 L 217.898438 31.632812 C 217.71875 31.132812 217.367188 30.738281 216.921875 30.535156 L 206.535156 25.855469 C 205.066406 25.195312 205.066406 22.855469 206.535156 22.195312 L 216.921875 17.515625 C 217.367188 17.3125 217.71875 16.917969 217.898438 16.417969 L 222.054688 4.722656 C 222.644531 3.074219 224.722656 3.074219 225.308594 4.722656 Z M 225.308594 4.722656 "/>
<path style=" stroke:none;fill-rule:nonzero;fill:rgb(96.862745%,88.627452%,40.000001%);fill-opacity:1;" d="M 24.226562 33.105469 C 24.226562 38.121094 20.164062 42.1875 15.148438 42.1875 C 10.132812 42.1875 6.066406 38.121094 6.066406 33.105469 C 6.066406 28.089844 10.132812 24.027344 15.148438 24.027344 C 20.164062 24.027344 24.226562 28.089844 24.226562 33.105469 Z M 24.226562 33.105469 "/>
<path style=" stroke:none;fill-rule:nonzero;fill:rgb(96.862745%,88.627452%,40.000001%);fill-opacity:1;" d="M 172.550781 5.859375 C 170.441406 5.597656 168.519531 7.097656 168.261719 9.207031 C 168.003906 11.316406 169.5 13.234375 171.609375 13.496094 C 173.71875 13.753906 175.640625 12.253906 175.898438 10.144531 C 176.15625 8.035156 174.65625 6.117188 172.550781 5.859375 Z M 172.550781 5.859375 "/>
<path style=" stroke:none;fill-rule:nonzero;fill:rgb(98.431373%,94.901961%,65.882355%);fill-opacity:1;" d="M 67.574219 0.917969 L 70.65625 9.59375 C 70.789062 9.964844 71.050781 10.257812 71.382812 10.40625 L 79.085938 13.878906 C 80.175781 14.371094 80.175781 16.105469 79.085938 16.59375 L 71.382812 20.066406 C 71.050781 20.214844 70.789062 20.507812 70.65625 20.878906 L 67.574219 29.554688 C 67.136719 30.78125 65.597656 30.78125 65.160156 29.554688 L 62.078125 20.878906 C 61.945312 20.507812 61.683594 20.214844 61.351562 20.066406 L 53.648438 16.59375 C 52.558594 16.105469 52.558594 14.367188 53.648438 13.878906 L 61.351562 10.40625 C 61.683594 10.257812 61.945312 9.964844 62.078125 9.59375 L 65.160156 0.917969 C 65.597656 -0.304688 67.136719 -0.304688 67.574219 0.917969 Z M 67.574219 0.917969 "/>
</g>
</svg>
